<?xml version="1.0" encoding="UTF-8"?>
<svg xmlns="http://www.w3.org/2000/svg" version="1.1" viewBox="0 0 512 512">
  <!-- Generator: Adobe Illustrator 28.7.1, SVG Export Plug-In . SVG Version: 1.2.0 Build 142)  -->
  <g>
    <g id="Layer_1">
      <path d="M255.9,2.2C114.5,2.2-.1,116.8-.1,258.2s84.3,222.8,197.5,249.2v-177.2c0-7.4,2.9-14.4,8.1-19.7l162.8-162.8c10.9-10.9,28.5-10.9,39.3,0l36.9,36.9c10.9,10.9,10.9,28.5,0,39.3l-131.2,131.2c-5.2,5.2-8.1,12.3-8.1,19.7v134.5c117.7-23,206.6-126.7,206.6-251.2S397.3,2.2,255.9,2.2ZM231.1,210.4l-49.7,49.7c-7.3,7.3-19.2,7.3-26.5,0l-75.7-75.7c-11.8-11.8-3.4-32,13.3-32h99.4c5,0,9.7,2,13.3,5.5l25.9,25.9c7.3,7.3,7.3,19.2,0,26.5Z"/>
    </g>
  </g>
</svg>